<svg xmlns="http://www.w3.org/2000/svg" width="32" height="28">
  <path fill="#444" d="M7.5 17q0-1.03-.734-1.766T5 14.5t-1.766.734T2.5 17t.734 1.766T5 19.5t1.766-.734T7.5 17zm.562-5h15.875l-1.39-5.578q-.032-.125-.22-.273T22 6H10q-.142 0-.33.15t-.218.272zM29.5 17q0-1.03-.734-1.766T27 14.5t-1.766.734T24.5 17t.734 1.766T27 19.5t1.766-.734T29.5 17zm2.5-1.5v6q0 .22-.14.36t-.36.14H30v2q0 1.25-.875 2.125T27 27t-2.125-.875T24 24v-2H8v2q0 1.25-.875 2.125T5 27t-2.125-.875T2 24v-2H.5q-.22 0-.36-.14T0 21.5v-6q0-1.453 1.023-2.477T3.5 12h.438l1.64-6.547q.36-1.47 1.626-2.46T10 2h12q1.532 0 2.798.992t1.625 2.46L28.063 12h.44q1.452 0 2.476 1.023T32 15.5z"/>
</svg>
